<svg xmlns="http://www.w3.org/2000/svg" xmlns:xlink="http://www.w3.org/1999/xlink" width="500" zoomAndPan="magnify" viewBox="0 0 375 374.999991" height="500" preserveAspectRatio="xMidYMid meet" version="1.2"><defs><clipPath id="f22c74394a"><path d="M 16 6.785156 L 56.609375 6.785156 L 56.609375 34 L 16 34 Z M 16 6.785156 "/></clipPath><clipPath id="6648cc56be"><path d="M 15.359375 28 L 56 28 L 56 45 L 15.359375 45 Z M 15.359375 28 "/></clipPath></defs><g id="6f50786eeb"><rect x="0" width="375" y="0" height="374.999991" style="fill:#ffffff;fill-opacity:1;stroke:none;"/><rect x="0" width="375" y="0" height="374.999991" style="fill:#fefefd;fill-opacity:1;stroke:none;"/><path style=" stroke:none;fill-rule:nonzero;fill:#60fdfc;fill-opacity:1;" d="M 45.941406 30.925781 C 45.941406 32.414062 44.734375 33.625 43.242188 33.625 C 41.75 33.625 40.542969 32.417969 40.542969 30.925781 C 40.542969 29.433594 41.75 28.226562 43.242188 28.226562 C 44.734375 28.226562 45.941406 29.433594 45.941406 30.925781 Z M 45.941406 30.925781 "/><path style=" stroke:none;fill-rule:nonzero;fill:#60fdfc;fill-opacity:1;" d="M 28.730469 28.226562 C 30.21875 28.226562 31.429688 29.433594 31.429688 30.925781 C 31.429688 32.414062 30.222656 33.625 28.730469 33.625 C 27.238281 33.625 26.03125 32.414062 26.03125 30.925781 C 26.03125 29.433594 27.238281 28.226562 28.730469 28.226562 Z M 28.730469 28.226562 "/><g clip-rule="nonzero" clip-path="url(#f22c74394a)"><path style=" stroke:none;fill-rule:nonzero;fill:#60fdfc;fill-opacity:1;" d="M 52.320312 33.800781 L 56.597656 33.800781 C 56.597656 33.707031 56.609375 33.613281 56.609375 33.523438 L 56.609375 28.328125 C 56.609375 22.34375 51.742188 17.480469 45.761719 17.480469 L 36.953125 17.480469 L 36.953125 12.828125 C 38.191406 12.421875 39.089844 11.269531 39.089844 9.894531 C 39.089844 8.179688 37.699219 6.785156 35.984375 6.785156 C 34.269531 6.785156 32.878906 8.179688 32.878906 9.894531 C 32.878906 11.269531 33.777344 12.421875 35.015625 12.828125 L 35.015625 17.480469 L 26.210938 17.480469 C 21.691406 17.480469 17.8125 20.265625 16.183594 24.203125 L 21.105469 24.203125 C 22.308594 22.714844 24.148438 21.757812 26.210938 21.757812 L 45.765625 21.757812 C 49.386719 21.757812 52.335938 24.703125 52.335938 28.328125 L 52.335938 33.523438 C 52.335938 33.617188 52.324219 33.710938 52.320312 33.800781 Z M 35.71875 8.554688 C 35.71875 9.039062 35.328125 9.433594 34.839844 9.433594 C 34.355469 9.433594 33.960938 9.039062 33.960938 8.554688 C 33.960938 8.070312 34.355469 7.675781 34.839844 7.675781 C 35.328125 7.675781 35.71875 8.074219 35.71875 8.554688 Z M 35.71875 8.554688 "/></g><g clip-rule="nonzero" clip-path="url(#6648cc56be)"><path style=" stroke:none;fill-rule:nonzero;fill:#60fdfc;fill-opacity:1;" d="M 15.378906 28.046875 L 19.65625 28.046875 C 19.652344 28.144531 19.644531 28.234375 19.644531 28.328125 L 19.644531 33.523438 C 19.644531 37.144531 22.589844 40.09375 26.214844 40.09375 L 45.765625 40.09375 C 47.828125 40.09375 49.667969 39.136719 50.875 37.648438 L 55.796875 37.648438 C 54.171875 41.585938 50.289062 44.367188 45.765625 44.367188 L 26.210938 44.367188 C 20.226562 44.367188 15.363281 39.5 15.363281 33.519531 L 15.363281 28.328125 C 15.363281 28.230469 15.375 28.140625 15.378906 28.046875 Z M 15.378906 28.046875 "/></g><path style=" stroke:none;fill-rule:nonzero;fill:#60fdfc;fill-opacity:1;" d="M 43.308594 45.910156 L 43.308594 52.808594 L 42.042969 53.917969 L 36.613281 50.476562 L 36.613281 48.238281 L 42.042969 44.800781 Z M 43.308594 45.910156 "/><path style=" stroke:none;fill-rule:nonzero;fill:#60fdfc;fill-opacity:1;" d="M 35.359375 48.238281 L 35.359375 50.476562 L 29.933594 53.917969 L 28.667969 52.808594 L 28.667969 45.910156 L 29.933594 44.800781 Z M 35.359375 48.238281 "/><path style=" stroke:none;fill-rule:nonzero;fill:#60fdfc;fill-opacity:1;" d="M 35.542969 48.261719 L 36.433594 48.261719 L 36.433594 50.453125 L 35.542969 50.453125 Z M 35.542969 48.261719 "/><g style="fill:#60fdfc;fill-opacity:1;"><g transform="translate(64.373728, 40.368649)"><path style="stroke:none" d="M 15.484375 -10.734375 C 16.742188 -10.429688 17.722656 -9.820312 18.421875 -8.90625 C 19.128906 -7.988281 19.484375 -6.929688 19.484375 -5.734375 C 19.484375 -3.898438 18.875 -2.484375 17.65625 -1.484375 C 16.445312 -0.492188 14.710938 0 12.453125 0 L 1.484375 0 L 1.484375 -20.9375 L 12.15625 -20.9375 C 14.28125 -20.9375 15.953125 -20.472656 17.171875 -19.546875 C 18.398438 -18.617188 19.015625 -17.265625 19.015625 -15.484375 C 19.015625 -14.265625 18.691406 -13.234375 18.046875 -12.390625 C 17.410156 -11.554688 16.554688 -11.003906 15.484375 -10.734375 Z M 8.046875 -12.765625 L 10.578125 -12.765625 C 11.171875 -12.765625 11.609375 -12.882812 11.890625 -13.125 C 12.179688 -13.363281 12.328125 -13.726562 12.328125 -14.21875 C 12.328125 -14.726562 12.179688 -15.109375 11.890625 -15.359375 C 11.609375 -15.609375 11.171875 -15.734375 10.578125 -15.734375 L 8.046875 -15.734375 Z M 11.03125 -5.265625 C 11.613281 -5.265625 12.046875 -5.375 12.328125 -5.59375 C 12.617188 -5.820312 12.765625 -6.191406 12.765625 -6.703125 C 12.765625 -7.710938 12.1875 -8.21875 11.03125 -8.21875 L 8.046875 -8.21875 L 8.046875 -5.265625 Z M 11.03125 -5.265625 "/></g></g><g style="fill:#60fdfc;fill-opacity:1;"><g transform="translate(83.49545, 40.368649)"><path style="stroke:none" d="M 8.046875 -13.59375 C 8.710938 -14.5625 9.523438 -15.335938 10.484375 -15.921875 C 11.453125 -16.503906 12.460938 -16.796875 13.515625 -16.796875 L 13.515625 -9.78125 L 11.640625 -9.78125 C 10.398438 -9.78125 9.488281 -9.5625 8.90625 -9.125 C 8.332031 -8.695312 8.046875 -7.929688 8.046875 -6.828125 L 8.046875 0 L 1.484375 0 L 1.484375 -16.671875 L 8.046875 -16.671875 Z M 8.046875 -13.59375 "/></g></g><g style="fill:#60fdfc;fill-opacity:1;"><g transform="translate(96.203778, 40.368649)"><path style="stroke:none" d="M 4.796875 -18 C 3.648438 -18 2.726562 -18.304688 2.03125 -18.921875 C 1.34375 -19.535156 1 -20.300781 1 -21.21875 C 1 -22.164062 1.34375 -22.945312 2.03125 -23.5625 C 2.726562 -24.1875 3.648438 -24.5 4.796875 -24.5 C 5.910156 -24.5 6.8125 -24.1875 7.5 -23.5625 C 8.195312 -22.945312 8.546875 -22.164062 8.546875 -21.21875 C 8.546875 -20.300781 8.195312 -19.535156 7.5 -18.921875 C 6.8125 -18.304688 5.910156 -18 4.796875 -18 Z M 8.046875 -16.671875 L 8.046875 0 L 1.484375 0 L 1.484375 -16.671875 Z M 8.046875 -16.671875 "/></g></g><g style="fill:#60fdfc;fill-opacity:1;"><g transform="translate(104.626653, 40.368649)"><path style="stroke:none" d="M 7.484375 -16.875 C 8.566406 -16.875 9.5 -16.648438 10.28125 -16.203125 C 11.070312 -15.765625 11.675781 -15.160156 12.09375 -14.390625 L 12.09375 -16.671875 L 18.625 -16.671875 L 18.625 -0.296875 C 18.625 1.265625 18.335938 2.6875 17.765625 3.96875 C 17.191406 5.25 16.269531 6.269531 15 7.03125 C 13.726562 7.800781 12.097656 8.1875 10.109375 8.1875 C 7.429688 8.1875 5.304688 7.5625 3.734375 6.3125 C 2.171875 5.0625 1.28125 3.363281 1.0625 1.21875 L 7.515625 1.21875 C 7.691406 2.082031 8.398438 2.515625 9.640625 2.515625 C 10.410156 2.515625 11.007812 2.316406 11.4375 1.921875 C 11.875 1.523438 12.09375 0.785156 12.09375 -0.296875 L 12.09375 -2.28125 C 11.675781 -1.507812 11.070312 -0.898438 10.28125 -0.453125 C 9.5 -0.015625 8.566406 0.203125 7.484375 0.203125 C 6.179688 0.203125 5.003906 -0.132812 3.953125 -0.8125 C 2.910156 -1.488281 2.085938 -2.472656 1.484375 -3.765625 C 0.890625 -5.054688 0.59375 -6.582031 0.59375 -8.34375 C 0.59375 -10.09375 0.890625 -11.613281 1.484375 -12.90625 C 2.085938 -14.195312 2.910156 -15.179688 3.953125 -15.859375 C 5.003906 -16.535156 6.179688 -16.875 7.484375 -16.875 Z M 12.09375 -8.34375 C 12.09375 -9.226562 11.863281 -9.914062 11.40625 -10.40625 C 10.957031 -10.894531 10.378906 -11.140625 9.671875 -11.140625 C 8.960938 -11.140625 8.378906 -10.894531 7.921875 -10.40625 C 7.472656 -9.914062 7.25 -9.226562 7.25 -8.34375 C 7.25 -7.445312 7.472656 -6.753906 7.921875 -6.265625 C 8.378906 -5.773438 8.960938 -5.53125 9.671875 -5.53125 C 10.378906 -5.53125 10.957031 -5.773438 11.40625 -6.265625 C 11.863281 -6.753906 12.09375 -7.445312 12.09375 -8.34375 Z M 12.09375 -8.34375 "/></g></g><g style="fill:#60fdfc;fill-opacity:1;"><g transform="translate(123.63016, 40.368649)"><path style="stroke:none" d="M 13.15625 -16.796875 C 15.0625 -16.796875 16.550781 -16.15625 17.625 -14.875 C 18.707031 -13.59375 19.25 -11.859375 19.25 -9.671875 L 19.25 0 L 12.71875 0 L 12.71875 -8.84375 C 12.71875 -9.625 12.503906 -10.242188 12.078125 -10.703125 C 11.648438 -11.171875 11.082031 -11.40625 10.375 -11.40625 C 9.644531 -11.40625 9.070312 -11.171875 8.65625 -10.703125 C 8.25 -10.242188 8.046875 -9.625 8.046875 -8.84375 L 8.046875 0 L 1.484375 0 L 1.484375 -21.875 L 8.046875 -21.875 L 8.046875 -14.125 C 8.554688 -14.914062 9.238281 -15.554688 10.09375 -16.046875 C 10.945312 -16.546875 11.96875 -16.796875 13.15625 -16.796875 Z M 13.15625 -16.796875 "/></g></g><g style="fill:#60fdfc;fill-opacity:1;"><g transform="translate(143.136093, 40.368649)"><path style="stroke:none" d="M 11.859375 -5.59375 L 11.859375 0 L 9.375 0 C 4.800781 0 2.515625 -2.273438 2.515625 -6.828125 L 2.515625 -11.203125 L 0.4375 -11.203125 L 0.4375 -16.671875 L 2.515625 -16.671875 L 2.515625 -20.6875 L 9.078125 -20.6875 L 9.078125 -16.671875 L 11.796875 -16.671875 L 11.796875 -11.203125 L 9.078125 -11.203125 L 9.078125 -6.703125 C 9.078125 -6.316406 9.171875 -6.035156 9.359375 -5.859375 C 9.546875 -5.679688 9.851562 -5.59375 10.28125 -5.59375 Z M 11.859375 -5.59375 "/></g></g><g style="fill:#60fdfc;fill-opacity:1;"><g transform="translate(154.92822, 40.368649)"><path style="stroke:none" d="M 4.734375 0.234375 C 3.585938 0.234375 2.671875 -0.0664062 1.984375 -0.671875 C 1.296875 -1.285156 0.953125 -2.054688 0.953125 -2.984375 C 0.953125 -3.929688 1.296875 -4.710938 1.984375 -5.328125 C 2.671875 -5.953125 3.585938 -6.265625 4.734375 -6.265625 C 5.859375 -6.265625 6.765625 -5.953125 7.453125 -5.328125 C 8.140625 -4.710938 8.484375 -3.929688 8.484375 -2.984375 C 8.484375 -2.054688 8.140625 -1.285156 7.453125 -0.671875 C 6.765625 -0.0664062 5.859375 0.234375 4.734375 0.234375 Z M 4.734375 0.234375 "/></g></g><g style="fill:#60fdfc;fill-opacity:1;"><g transform="translate(163.262433, 40.368649)"><path style="stroke:none" d="M 0.59375 -8.34375 C 0.59375 -10.09375 0.890625 -11.613281 1.484375 -12.90625 C 2.085938 -14.195312 2.910156 -15.179688 3.953125 -15.859375 C 5.003906 -16.535156 6.179688 -16.875 7.484375 -16.875 C 8.566406 -16.875 9.5 -16.648438 10.28125 -16.203125 C 11.070312 -15.765625 11.675781 -15.160156 12.09375 -14.390625 L 12.09375 -16.671875 L 18.625 -16.671875 L 18.625 0 L 12.09375 0 L 12.09375 -2.28125 C 11.675781 -1.507812 11.070312 -0.898438 10.28125 -0.453125 C 9.5 -0.015625 8.566406 0.203125 7.484375 0.203125 C 6.179688 0.203125 5.003906 -0.132812 3.953125 -0.8125 C 2.910156 -1.488281 2.085938 -2.472656 1.484375 -3.765625 C 0.890625 -5.054688 0.59375 -6.582031 0.59375 -8.34375 Z M 12.09375 -8.34375 C 12.09375 -9.226562 11.863281 -9.914062 11.40625 -10.40625 C 10.957031 -10.894531 10.378906 -11.140625 9.671875 -11.140625 C 8.960938 -11.140625 8.378906 -10.894531 7.921875 -10.40625 C 7.472656 -9.914062 7.25 -9.226562 7.25 -8.34375 C 7.25 -7.445312 7.472656 -6.753906 7.921875 -6.265625 C 8.378906 -5.773438 8.960938 -5.53125 9.671875 -5.53125 C 10.378906 -5.53125 10.957031 -5.773438 11.40625 -6.265625 C 11.863281 -6.753906 12.09375 -7.445312 12.09375 -8.34375 Z M 12.09375 -8.34375 "/></g></g><g style="fill:#60fdfc;fill-opacity:1;"><g transform="translate(182.26594, 40.368649)"><path style="stroke:none" d="M 4.796875 -18 C 3.648438 -18 2.726562 -18.304688 2.03125 -18.921875 C 1.34375 -19.535156 1 -20.300781 1 -21.21875 C 1 -22.164062 1.34375 -22.945312 2.03125 -23.5625 C 2.726562 -24.1875 3.648438 -24.5 4.796875 -24.5 C 5.910156 -24.5 6.8125 -24.1875 7.5 -23.5625 C 8.195312 -22.945312 8.546875 -22.164062 8.546875 -21.21875 C 8.546875 -20.300781 8.195312 -19.535156 7.5 -18.921875 C 6.8125 -18.304688 5.910156 -18 4.796875 -18 Z M 8.046875 -16.671875 L 8.046875 0 L 1.484375 0 L 1.484375 -16.671875 Z M 8.046875 -16.671875 "/></g></g></g></svg>